<?xml version="1.0" standalone="no"?>
<!DOCTYPE svg PUBLIC "-//W3C//DTD SVG 20010904//EN"
 "http://www.w3.org/TR/2001/REC-SVG-20010904/DTD/svg10.dtd">
<svg version="1.0" xmlns="http://www.w3.org/2000/svg"
 width="512.000000pt" height="512.000000pt" viewBox="0 0 512.000000 512.000000"
 preserveAspectRatio="xMidYMid meet">

<g transform="translate(0.000000,512.000000) scale(0.100000,-0.100000)"
fill="rgba(255, 0, 229, 1)" stroke="none">
<path d="M1211 3916 l-1183 -1184 513 -170 c1278 -424 1848 -612 1858 -612 8
0 11 451 11 1575 0 866 -3 1575 -8 1575 -4 0 -540 -533 -1191 -1184z"/>
<path d="M2710 3525 c0 -1166 3 -1575 11 -1575 8 0 2138 701 2359 776 9 3
-399 418 -1170 1189 -652 652 -1188 1185 -1192 1185 -5 0 -8 -709 -8 -1575z"/>
<path d="M1200 1216 c657 -658 1198 -1196 1202 -1196 5 0 8 360 8 799 l0 799
-862 286 c-475 156 -1009 333 -1188 392 -179 58 -332 109 -340 112 -8 2 523
-534 1180 -1192z"/>
<path d="M4695 2275 c-220 -74 -757 -252 -1192 -396 l-793 -261 0 -799 c0
-440 3 -799 8 -799 4 0 545 538 1202 1195 657 657 1190 1195 1185 1194 -6 0
-190 -61 -410 -134z"/>
</g>
</svg>
